<?xml version="1.0" encoding="UTF-8"?>
<svg width="64px" height="64px" viewBox="0 0 64 64" version="1.1" xmlns="http://www.w3.org/2000/svg">
    <title>BlockParty Icon</title>
    <g id="BlockParty-Icon" stroke="none" stroke-width="1" fill="none" fill-rule="evenodd">
        <rect id="App-Background" fill="#FFC2E9" x="0" y="0" width="64" height="64" rx="8"></rect>
        <rect id="Block-1" fill="#5F2EEA" x="12" y="12" width="16" height="16" rx="2"></rect>
        <rect id="Block-2" fill="#FF5C00" x="36" y="12" width="16" height="16" rx="2"></rect>
        <rect id="Block-3" fill="#00BAFF" x="12" y="36" width="16" height="16" rx="2"></rect>
        <rect id="Block-4" fill="#FF2E6C" x="36" y="36" width="16" height="16" rx="2"></rect>
        <path d="M6,4 C4.8954305,4 4,4.8954305 4,6 L4,58 C4,59.1045695 4.8954305,60 6,60 L58,60 C59.1045695,60 60,59.1045695 60,58 L60,6 C60,4.8954305 59.1045695,4 58,4 L6,4 Z M6,0 L58,0 C61.3137085,-6.08718376e-16 64,2.6862915 64,6 L64,58 C64,61.3137085 61.3137085,64 58,64 L6,64 C2.6862915,64 4.05812251e-16,61.3137085 0,58 L0,6 C-4.05812251e-16,2.6862915 2.6862915,6.08718376e-16 6,0 Z" id="Frame" fill="#8E5CAA" fill-rule="nonzero"></path>
    </g>
</svg>