<svg xmlns="http://www.w3.org/2000/svg" xmlns:xlink="http://www.w3.org/1999/xlink" width="2000" zoomAndPan="magnify" viewBox="0 0 1500 1499.999933" height="2000" preserveAspectRatio="xMidYMid meet" version="1.0"><defs><g/><clipPath id="6d8eb09489"><rect x="0" width="1357" y="0" height="932"/></clipPath></defs><g transform="matrix(1, 0, 0, 1, 106, 278)"><g clip-path="url(#6d8eb09489)"><g fill="#ffffff" fill-opacity="1"><g transform="translate(69.123084, 644.328299)"><g><path d="M 389.875 -445.203125 C 403.601562 -445.203125 417.003906 -442.304688 430.078125 -436.515625 C 443.160156 -430.722656 453.882812 -422.785156 462.25 -412.703125 C 470.613281 -402.628906 474.796875 -391.800781 474.796875 -380.21875 C 474.796875 -354.914062 457.640625 -342.265625 423.328125 -342.265625 C 413.460938 -342.265625 405.847656 -343.015625 400.484375 -344.515625 C 395.128906 -346.015625 388.804688 -348.484375 381.515625 -351.921875 C 380.222656 -348.921875 379.578125 -344.628906 379.578125 -339.046875 C 379.578125 -332.179688 380.753906 -324.03125 383.109375 -314.59375 C 385.472656 -305.164062 388.375 -296.375 391.8125 -288.21875 C 400.8125 -274.925781 405.3125 -259.054688 405.3125 -240.609375 C 405.3125 -232.460938 404.238281 -222.597656 402.09375 -211.015625 C 396.945312 -188.710938 385.6875 -168.335938 368.3125 -149.890625 C 350.945312 -131.453125 328.644531 -116.976562 301.40625 -106.46875 C 274.175781 -95.96875 244.265625 -90.71875 211.671875 -90.71875 C 186.785156 -90.71875 163.410156 -92.429688 141.546875 -95.859375 C 135.109375 -90.285156 131.890625 -83.421875 131.890625 -75.265625 C 131.890625 -69.691406 134.460938 -65.082031 139.609375 -61.4375 C 144.753906 -57.789062 153.332031 -55.96875 165.34375 -55.96875 L 261.84375 -55.96875 C 294.875 -55.96875 320.609375 -50.285156 339.046875 -38.921875 C 357.492188 -27.554688 366.71875 -11.363281 366.71875 9.65625 C 366.71875 17.375 365.429688 25.304688 362.859375 33.453125 C 357.710938 50.179688 346.023438 65.726562 327.796875 80.09375 C 309.566406 94.46875 283.9375 106.15625 250.90625 115.15625 C 217.882812 124.164062 177.785156 128.671875 130.609375 128.671875 C 88.566406 128.671875 52.960938 125.023438 23.796875 117.734375 C -5.359375 110.441406 -27.117188 100.46875 -41.484375 87.8125 C -55.859375 75.164062 -63.046875 61.117188 -63.046875 45.671875 C -63.046875 42.242188 -62.1875 37.097656 -60.46875 30.234375 C -56.613281 17.796875 -47.929688 7.613281 -34.421875 -0.3125 C -20.910156 -8.25 1.285156 -13.503906 32.171875 -16.078125 C 21.878906 -25.941406 16.734375 -37.738281 16.734375 -51.46875 C 16.734375 -56.1875 17.375 -61.117188 18.65625 -66.265625 C 25.519531 -88.566406 45.679688 -105.082031 79.140625 -115.8125 C 46.960938 -133.394531 30.875 -159.128906 30.875 -193.015625 C 30.875 -202.441406 32.160156 -212.304688 34.734375 -222.609375 C 39.890625 -244.910156 51.257812 -265.175781 68.84375 -283.40625 C 86.425781 -301.632812 108.941406 -316.109375 136.390625 -326.828125 C 163.835938 -337.546875 193.863281 -342.90625 226.46875 -342.90625 C 277.5 -342.90625 317.597656 -336.257812 346.765625 -322.96875 C 340.335938 -332.832031 335.300781 -343.445312 331.65625 -354.8125 C 328.007812 -366.175781 326.1875 -376.578125 326.1875 -386.015625 C 326.1875 -402.316406 331.4375 -416.253906 341.9375 -427.828125 C 352.445312 -439.410156 368.425781 -445.203125 389.875 -445.203125 Z M 250.265625 -216.8125 C 257.128906 -238.6875 260.5625 -255.414062 260.5625 -267 C 260.5625 -281.582031 254.34375 -288.875 241.90625 -288.875 C 231.175781 -288.875 221.84375 -283.617188 213.90625 -273.109375 C 205.976562 -262.597656 197.941406 -243.832031 189.796875 -216.8125 C 182.929688 -194.507812 179.5 -177.566406 179.5 -165.984375 C 179.5 -151.828125 185.503906 -144.75 197.515625 -144.75 C 208.234375 -144.75 217.664062 -150.109375 225.8125 -160.828125 C 233.96875 -171.554688 242.117188 -190.21875 250.265625 -216.8125 Z M 122.234375 9 C 110.222656 9 99.285156 8.359375 89.421875 7.078125 C 84.273438 13.515625 81.703125 22.09375 81.703125 32.8125 C 82.128906 43.53125 86.523438 51.25 94.890625 55.96875 C 103.253906 60.6875 116.226562 63.046875 133.8125 63.046875 C 155.257812 63.046875 172.738281 59.828125 186.25 53.390625 C 199.757812 46.960938 206.515625 37.742188 206.515625 25.734375 C 206.515625 20.585938 204.582031 16.507812 200.71875 13.5 C 196.863281 10.5 191.289062 9 184 9 Z M 122.234375 9 "/></g></g></g><g fill="#ffffff" fill-opacity="1"><g transform="translate(490.523445, 644.328299)"><g><path d="M 398.234375 -88.78125 C 397.378906 -87.0625 396.953125 -84.488281 396.953125 -81.0625 C 396.953125 -78.0625 397.703125 -75.703125 399.203125 -73.984375 C 400.703125 -72.265625 402.738281 -71.40625 405.3125 -71.40625 C 410.457031 -71.40625 414.851562 -73.65625 418.5 -78.15625 C 422.144531 -82.664062 424.613281 -84.921875 425.90625 -84.921875 C 428.050781 -84.921875 429.765625 -83.523438 431.046875 -80.734375 C 432.335938 -77.953125 432.984375 -74.628906 432.984375 -70.765625 C 433.410156 -58.328125 429.332031 -46.210938 420.75 -34.421875 C 412.175781 -22.628906 399.628906 -12.976562 383.109375 -5.46875 C 366.597656 2.039062 346.765625 5.796875 323.609375 5.796875 C 295.296875 5.796875 272.773438 -0.742188 256.046875 -13.828125 C 239.328125 -26.910156 230.753906 -44.390625 230.328125 -66.265625 C 230.328125 -82.140625 234.1875 -99.941406 241.90625 -119.671875 L 277.28125 -212.3125 C 279.425781 -217.882812 280.5 -222.382812 280.5 -225.8125 C 280.5 -231.394531 278.675781 -235.789062 275.03125 -239 C 271.382812 -242.21875 266.988281 -243.828125 261.84375 -243.828125 C 252.40625 -243.828125 243.394531 -239.429688 234.8125 -230.640625 C 226.238281 -221.847656 220.023438 -211.019531 216.171875 -198.15625 L 176.28125 -66.90625 C 174.5625 -62.1875 173.703125 -57.6875 173.703125 -53.40625 C 173.703125 -48.25 174.773438 -44.0625 176.921875 -40.84375 C 179.066406 -37.632812 182.070312 -34.3125 185.9375 -30.875 C 188.9375 -28.300781 191.078125 -25.941406 192.359375 -23.796875 C 193.648438 -21.660156 193.867188 -19.085938 193.015625 -16.078125 C 191.296875 -10.503906 187.21875 -6.429688 180.78125 -3.859375 C 174.351562 -1.285156 164.273438 0 150.546875 0 L 3.859375 0 C -7.296875 0 -15.335938 -1.820312 -20.265625 -5.46875 C -25.203125 -9.113281 -27.023438 -13.9375 -25.734375 -19.9375 C -24.015625 -25.09375 -19.507812 -29.597656 -12.21875 -33.453125 C -5.789062 -36.890625 -0.429688 -40.960938 3.859375 -45.671875 C 8.148438 -50.390625 11.796875 -57.898438 14.796875 -68.203125 L 72.0625 -254.125 C 72.914062 -256.269531 73.34375 -259.273438 73.34375 -263.140625 C 73.34375 -267.859375 72.375 -271.503906 70.4375 -274.078125 C 68.507812 -276.648438 65.40625 -279.863281 61.125 -283.71875 C 56.832031 -287.15625 53.828125 -290.160156 52.109375 -292.734375 C 50.390625 -295.304688 50.175781 -298.734375 51.46875 -303.015625 C 54.039062 -312.878906 67.550781 -321.566406 92 -329.078125 C 116.445312 -336.585938 141.96875 -340.34375 168.5625 -340.34375 C 190.007812 -340.34375 206.953125 -334.441406 219.390625 -322.640625 C 231.828125 -310.847656 237.398438 -294.441406 236.109375 -273.421875 C 253.691406 -298.734375 272.347656 -316.210938 292.078125 -325.859375 C 311.816406 -335.515625 333.265625 -340.34375 356.421875 -340.34375 C 382.585938 -340.34375 403.710938 -332.40625 419.796875 -316.53125 C 435.878906 -300.664062 443.921875 -280.078125 443.921875 -254.765625 C 443.921875 -241.472656 441.773438 -228.394531 437.484375 -215.53125 Z M 398.234375 -88.78125 "/></g></g></g><g fill="#ffffff" fill-opacity="1"><g transform="translate(951.168732, 644.328299)"><g><path d="M 262.484375 -475.4375 C 308.378906 -475.4375 342.800781 -468.46875 365.75 -454.53125 C 388.695312 -440.59375 400.171875 -423.546875 400.171875 -403.390625 C 400.171875 -387.085938 393.414062 -374.539062 379.90625 -365.75 C 366.394531 -356.957031 348.703125 -352.5625 326.828125 -352.5625 C 306.671875 -352.5625 291.015625 -357.492188 279.859375 -367.359375 C 268.710938 -377.222656 263.140625 -389.445312 263.140625 -404.03125 C 263.140625 -413.039062 265.925781 -422.476562 271.5 -432.34375 C 258.632812 -432.34375 247.910156 -429.234375 239.328125 -423.015625 C 230.753906 -416.796875 224.109375 -406.175781 219.390625 -391.15625 C 216.816406 -381.726562 215.53125 -372.9375 215.53125 -364.78125 C 215.53125 -354.488281 217.351562 -346.445312 221 -340.65625 C 224.644531 -334.863281 229.894531 -331.96875 236.75 -331.96875 L 274.71875 -331.96875 C 297.019531 -331.96875 308.171875 -325.109375 308.171875 -311.390625 C 308.171875 -309.671875 307.738281 -307.097656 306.875 -303.671875 C 304.300781 -294.234375 299.046875 -287.15625 291.109375 -282.4375 C 283.179688 -277.71875 271.28125 -275.359375 255.40625 -275.359375 L 236.109375 -275.359375 L 172.421875 -66.90625 C 171.128906 -61.757812 170.484375 -57.257812 170.484375 -53.40625 C 170.484375 -47.820312 171.554688 -43.421875 173.703125 -40.203125 C 175.847656 -36.992188 178.851562 -33.882812 182.71875 -30.875 C 185.71875 -27.875 187.859375 -25.410156 189.140625 -23.484375 C 190.429688 -21.554688 190.648438 -19.085938 189.796875 -16.078125 C 187.648438 -10.503906 183.359375 -6.429688 176.921875 -3.859375 C 170.492188 -1.285156 160.628906 0 147.328125 0 L 0.640625 0 C -10.503906 0 -18.648438 -1.820312 -23.796875 -5.46875 C -28.953125 -9.113281 -30.671875 -13.9375 -28.953125 -19.9375 C -27.234375 -25.09375 -22.726562 -29.597656 -15.4375 -33.453125 C -9.007812 -36.890625 -3.648438 -40.960938 0.640625 -45.671875 C 4.929688 -50.390625 8.578125 -57.898438 11.578125 -68.203125 L 61.765625 -232.890625 C 63.910156 -239.328125 64.984375 -245.976562 64.984375 -252.84375 C 64.984375 -261.414062 63.160156 -268.164062 59.515625 -273.09375 C 55.867188 -278.03125 50.398438 -283.503906 43.109375 -289.515625 C 38.390625 -293.367188 34.847656 -296.691406 32.484375 -299.484375 C 30.128906 -302.273438 28.953125 -305.597656 28.953125 -309.453125 C 28.523438 -317.609375 31.421875 -323.398438 37.640625 -326.828125 C 43.859375 -330.253906 55.757812 -331.96875 73.34375 -331.96875 L 89.421875 -331.96875 C 86.421875 -342.695312 84.921875 -353.421875 84.921875 -364.140625 C 84.921875 -374.859375 86.851562 -386.007812 90.71875 -397.59375 C 98.863281 -419.46875 116.335938 -437.910156 143.140625 -452.921875 C 169.953125 -467.929688 209.734375 -475.4375 262.484375 -475.4375 Z M 262.484375 -475.4375 "/></g></g></g></g></g></svg>